<svg width="45" height="72" viewBox="0 0 45 72" fill="none" xmlns="http://www.w3.org/2000/svg">
<path d="M0 0.061224L0.0512442 0.0871576L22.4981 15.671L44.8854 0.088898L45 0V6.2613L25.0561 20.1427V23.0559L22.5018 24.8338L19.941 23.0559L19.941 20.1427L0 6.29858V0.061224Z" fill="white"/>
<path d="M22.4996 32.4454L0 16.7946V39.6985L22.501 55.3502L40.0743 43.1096V53.5668L22.5008 65.7541L0.0512442 50.1684L0 50.1312V56.3799L22.4992 72L45 56.3956V33.425L22.499 49.098L4.98648 36.9162V26.5142L22.5004 38.6969L45 23.0367V16.7754L44.8854 16.8643L22.4996 32.4454Z" fill="white"/>
</svg>
