<svg width="30" height="30" viewBox="0 0 30 30" fill="none" xmlns="http://www.w3.org/2000/svg">
<path d="M15 0C23.2852 0 30 6.71484 30 15C30 22.4883 24.5156 28.6934 17.3438 29.8184V19.3359H20.8389L21.5039 15H17.3438V12.1875C17.3438 12.0392 17.3528 11.8913 17.3723 11.7461C17.5088 10.7298 18.1567 9.84375 19.7871 9.84375H21.6797V6.15234C21.6797 6.15234 19.9629 5.85938 18.3223 5.85938C14.8945 5.85938 12.6562 7.93652 12.6562 11.6953V15H8.84766V19.3359H12.6562V29.8184C5.48438 28.6934 0 22.4883 0 15C0 6.71484 6.71484 0 15 0Z" fill="white"/>
</svg>
