<svg width="124" height="200" viewBox="0 0 124 200" fill="none" xmlns="http://www.w3.org/2000/svg">
<path opacity="0.6" fill-rule="evenodd" clip-rule="evenodd" d="M3.16339 3.5105L61.9936 44.3536L120.509 3.62519L124 0.916626V22.7415L70.8164 59.7586V67.5272L62.0064 73.6592L53.1761 67.5288L53.176 59.7601L0 22.8424V1.90958L3.16339 3.5105ZM55.176 58.7139L55.1761 66.4825L62.0049 71.2235L68.8164 66.4825V58.7139L122 21.6968V5L121.694 5.23706L61.9951 46.7893L2.13665 5.23242L2 5.16327V21.7962L55.176 58.7139ZM0 45.9582L61.9985 89.0846L120.509 48.3596L124 45.6508V67.4759L62.0015 110.628L17.2973 79.5319V102.398L61.9966 133.491L124 90.303V156.435L61.9973 199.434L0 156.393V134.759L3.29476 137.152L62.0027 177.91L106.865 146.798V123.789L62.0034 155.037L0 111.908V45.9582ZM108.865 119.959V147.845L62.0021 180.344L2.13665 138.782L2 138.683V155.346L61.9979 197L122 155.388V94.1334L61.9974 135.928L15.2973 103.443V75.7044L62.0012 108.192L122 66.4312V49.7344L121.694 49.9714L61.9988 91.5211L2 49.7857V110.863L62.0026 152.601L108.865 119.959Z" fill="#D80E27"/>
</svg>
